Radio-Canada-Light-slant-10.ufo
<glyph name="dollar" format="1">
  <advance width="660"/>
  <unicode hex="0024"/>
  <outline>
    <contour>
      <point x="100.51677430234491" y="88.0" type="line"/>
      <point x="150.58450149842008" y="26.0"/>
      <point x="225.5893841543323" y="-8.0"/>
      <point x="328.58938415433227" y="-8.0" type="curve"/>
      <point x="475.58938415433227" y="-8.0"/>
      <point x="581.9902346881756" y="68.0"/>
      <point x="601.2098755853983" y="177.0" type="curve"/>
      <point x="616.9029768684517" y="266.0"/>
      <point x="564.2458655180442" y="336.0"/>
      <point x="412.23854153417597" y="387.0" type="curve" smooth="yes"/>
      <point x="291.467947743223" y="428.0"/>
      <point x="262.1683730101447" y="466.0"/>
      <point x="272.04268392981874" y="522.0" type="curve"/>
      <point x="283.6802646565774" y="588.0"/>
      <point x="355.5545755762514" y="644.0"/>
      <point x="457.5545755762514" y="644.0" type="curve"/>
      <point x="530.5545755762514" y="644.0"/>
      <point x="576.6174201164145" y="616.0"/>
      <point x="609.5643408880758" y="576.0" type="curve"/>
      <point x="655.6753820006652" y="622.0" type="line"/>
      <point x="613.1390770746715" y="670.0"/>
      <point x="554.0762325345086" y="698.0"/>
      <point x="467.07623253450856" y="698.0" type="curve"/>
      <point x="332.07623253450856" y="698.0"/>
      <point x="229.44109313570596" y="615.0"/>
      <point x="212.5137029876933" y="519.0" type="curve"/>
      <point x="198.0548905695992" y="437.0"/>
      <point x="240.65159870779976" y="378.0"/>
      <point x="378.36423061450193" y="331.0" type="curve" smooth="yes"/>
      <point x="521.7242085597871" y="282.0"/>
      <point x="550.0841865050724" y="233.0"/>
      <point x="539.328240681856" y="172.0" type="curve"/>
      <point x="526.809025051555" y="101.0"/>
      <point x="454.11104111258936" y="46.0"/>
      <point x="338.11104111258936" y="46.0" type="curve"/>
      <point x="249.1110411125894" y="46.0"/>
      <point x="189.75350449526027" y="78.0"/>
      <point x="148.0988344728089" y="131.0" type="curve"/>
    </contour>
    <contour>
      <point x="296.3673019291535" y="-100.0" type="line"/>
      <point x="352.3673019291535" y="-100.0" type="line"/>
      <point x="430.656481363712" y="344.0" type="line"/>
      <point x="377.8303670164643" y="362.0" type="line"/>
    </contour>
    <contour>
      <point x="377.8303670164643" y="362.0" type="line"/>
      <point x="430.656481363712" y="344.0" type="line"/>
      <point x="509.29831475968734" y="790.0" type="line"/>
      <point x="453.29831475968734" y="790.0" type="line"/>
    </contour>
  </outline>
</glyph>
<glyph name="parenleft" format="1">
  <advance width="330"/>
  <unicode hex="0028"/>
  <outline>
    <contour>
      <point x="137.2556308298686" y="268.0" type="curve" smooth="yes"/>
      <point x="98.11104111258939" y="46.0"/>
      <point x="167.7803591027773" y="-109.0"/>
      <point x="276.6211214177615" y="-229.0" type="curve"/>
      <point x="310.61623876184933" y="-195.0" type="line"/>
      <point x="216.18853362048895" y="-84.0"/>
      <point x="157.99023468817563" y="68.0"/>
      <point x="193.2556308298686" y="268.0" type="curve" smooth="yes"/>
      <point x="228.5210269715616" y="468.0"/>
      <point x="340.1464010585398" y="619.0"/>
      <point x="473.71869591717945" y="730.0" type="curve"/>
      <point x="451.7138132612672" y="764.0" type="line"/>
      <point x="300.5545755762514" y="644.0"/>
      <point x="176.40022054714785" y="490.0"/>
    </contour>
  </outline>
</glyph>
<glyph name="asterisk" format="1">
  <advance width="607"/>
  <unicode hex="002A"/>
  <outline>
    <contour>
      <point x="169.33493467902878" y="535.0" type="line"/>
      <point x="353.16593168218856" y="483.0" type="line"/>
      <point x="195.7772877881257" y="322.0" type="line"/>
      <point x="242.90053554049558" y="283.0" type="line"/>
      <point x="382.8761222609346" y="453.0" type="line"/>
      <point x="462.9005355404956" y="283.0" type="line"/>
      <point x="523.7772877881257" y="322.0" type="line"/>
      <point x="424.16593168218856" y="483.0" type="line"/>
      <point x="626.3349346790287" y="535.0" type="line"/>
      <point x="616.4435344636621" y="598.0" type="line"/>
      <point x="420.276972794778" y="529.0" type="line"/>
      <point x="462.9554261100948" y="720.0" type="line"/>
      <point x="396.9554261100948" y="720.0" type="line"/>
      <point x="373.276972794778" y="529.0" type="line"/>
      <point x="201.44353446366205" y="598.0" type="line"/>
    </contour>
  </outline>
</glyph>
<glyph name="three" format="1">
  <advance width="660"/>
  <unicode hex="0033"/>
  <outline>
    <contour>
      <point x="102.81146637951106" y="84.0" type="line"/>
      <point x="151.05552055629468" y="23.0"/>
      <point x="216.5893841543323" y="-8.0"/>
      <point x="305.58938415433227" y="-8.0" type="curve"/>
      <point x="436.58938415433227" y="-8.0"/>
      <point x="560.1665616688841" y="69.0"/>
      <point x="583.6180501031099" y="202.0" type="curve"/>
      <point x="606.3642306145019" y="331.0"/>
      <point x="504.82548436055214" y="396.0"/>
      <point x="387.82548436055214" y="396.0" type="curve" smooth="yes"/>
      <point x="338.82548436055214" y="396.0" type="line"/>
      <point x="283.70956059205054" y="384.0" type="line"/>
      <point x="276.4801543830035" y="343.0" type="line"/>
      <point x="355.4801543830035" y="343.0" type="line" smooth="yes"/>
      <point x="463.4801543830035" y="343.0"/>
      <point x="535.4874783668718" y="292.0"/>
      <point x="519.6180501031099" y="202.0" type="curve"/>
      <point x="502.6906599550973" y="106.0"/>
      <point x="417.4636950740063" y="48.0"/>
      <point x="315.4636950740063" y="48.0" type="curve"/>
      <point x="243.46369507400632" y="48.0"/>
      <point x="189.75350449526027" y="78.0"/>
      <point x="154.39352654997506" y="127.0" type="curve"/>
    </contour>
    <contour>
      <point x="216.7913057691668" y="634.0" type="line"/>
      <point x="586.7913057691668" y="634.0" type="line"/>
      <point x="638.2598834990853" y="648.0" type="line"/>
      <point x="645.6656166888408" y="690.0" type="line"/>
      <point x="226.66561668884083" y="690.0" type="line"/>
    </contour>
    <contour>
      <point x="283.70956059205054" y="384.0" type="line"/>
      <point x="358.70956059205054" y="384.0" type="line"/>
      <point x="638.2598834990853" y="648.0" type="line"/>
      <point x="606.6656166888408" y="690.0" type="line"/>
    </contour>
  </outline>
</glyph>
<glyph name="nine" format="1">
  <advance width="660"/>
  <unicode hex="0039"/>
  <outline>
    <contour>
      <point x="181.9920460294362" y="465.0" type="curve"/>
      <point x="159.59851947946117" y="338.0"/>
      <point x="242.13970706136703" y="256.0"/>
      <point x="357.13970706136706" y="256.0" type="curve"/>
      <point x="442.13970706136706" y="256.0"/>
      <point x="526.8376910003326" y="311.0"/>
      <point x="571.7699638042575" y="373.0" type="curve"/>
      <point x="583.2312175503076" y="438.0" type="line"/>
      <point x="517.1250590936305" y="358.0"/>
      <point x="451.8376910003326" y="311.0"/>
      <point x="370.8376910003326" y="311.0" type="curve"/>
      <point x="287.8376910003326" y="311.0"/>
      <point x="231.12261776567436" y="375.0"/>
      <point x="247.5210269715616" y="468.0" type="curve"/>
      <point x="265.1537250424081" y="568.0"/>
      <point x="341.20192161483453" y="642.0"/>
      <point x="434.20192161483453" y="642.0" type="curve"/>
      <point x="532.2019216148345" y="642.0"/>
      <point x="600.6851473124896" y="554.0"/>
      <point x="567.8883289007151" y="368.0" type="curve" smooth="yes"/>
      <point x="529.6253740869782" y="151.0"/>
      <point x="394.4636950740063" y="48.0"/>
      <point x="287.4636950740063" y="48.0" type="curve"/>
      <point x="242.46369507400632" y="48.0"/>
      <point x="209.5796188425079" y="60.0"/>
      <point x="174.16412034092798" y="86.0" type="curve"/>
      <point x="136.52409828621322" y="37.0" type="line"/>
      <point x="182.0579618842508" y="6.0"/>
      <point x="230.5893841543323" y="-8.0"/>
      <point x="277.58938415433227" y="-8.0" type="curve"/>
      <point x="420.58938415433227" y="-8.0"/>
      <point x="587.8645456078497" y="124.0"/>
      <point x="630.8883289007151" y="368.0" type="curve" smooth="yes"/>
      <point x="669.6802646565774" y="588.0"/>
      <point x="575.0762325345086" y="698.0"/>
      <point x="449.07623253450856" y="698.0" type="curve"/>
      <point x="320.07623253450856" y="698.0"/>
      <point x="205.2672074829536" y="597.0"/>
    </contour>
  </outline>
</glyph>
<glyph name="question" format="1">
  <advance width="498"/>
  <unicode hex="003F"/>
  <outline>
    <contour>
      <point x="138.32761069516047" y="586.0" type="curve"/>
      <point x="174.33249335107269" y="552.0" type="line"/>
      <point x="221.91211219358058" y="612.0"/>
      <point x="279.6729406727091" y="639.0"/>
      <point x="339.6729406727091" y="639.0" type="curve"/>
      <point x="420.6729406727091" y="639.0"/>
      <point x="460.74066786878427" y="577.0"/>
      <point x="449.98472204556793" y="516.0" type="curve"/>
      <point x="440.9920460294362" y="465.0"/>
      <point x="409.82060170463996" y="430.0"/>
      <point x="335.06221455346747" y="386.0" type="curve" smooth="yes"/>
      <point x="280.4197511707966" y="354.0"/>
      <point x="260.07197986529184" y="318.0"/>
      <point x="253.3739959263263" y="263.0" type="curve" smooth="yes"/>
      <point x="242.7388565275237" y="180.0" type="line"/>
      <point x="293.7388565275237" y="180.0" type="line"/>
      <point x="309.7870530999501" y="254.0" type="line" smooth="yes"/>
      <point x="318.8401323282887" y="294.0"/>
      <point x="331.60096080741727" y="321.0"/>
      <point x="367.30382740229504" y="342.0" type="curve" smooth="yes"/>
      <point x="456.6491573798437" y="395.0"/>
      <point x="502.52346829951773" y="451.0"/>
      <point x="513.9847220455679" y="516.0" type="curve"/>
      <point x="531.441093135706" y="615.0"/>
      <point x="464.07623253450856" y="698.0"/>
      <point x="355.07623253450856" y="698.0" type="curve"/>
      <point x="275.07623253450856" y="698.0"/>
      <point x="200.37580726758688" y="660.0"/>
    </contour>
    <component base="period" xOffset="127"/>
  </outline>
</glyph>
<glyph name="J" format="1">
  <advance width="536"/>
  <unicode hex="004A"/>
  <outline>
    <contour>
      <point x="70.34044732163645" y="87.0" type="line"/>
      <point x="102.40817451771163" y="25.0"/>
      <point x="158.5893841543323" y="-8.0"/>
      <point x="227.5893841543323" y="-8.0" type="curve"/>
      <point x="342.58938415433227" y="-8.0"/>
      <point x="447.99023468817563" y="68.0"/>
      <point x="473.91030085231995" y="215.0" type="curve" smooth="yes"/>
      <point x="557.6656166888408" y="690.0" type="line"/>
      <point x="495.6656166888408" y="690.0" type="line"/>
      <point x="412.7919357558623" y="220.0" type="line" smooth="yes"/>
      <point x="392.6906599550973" y="106.0"/>
      <point x="318.6400220547148" y="49.0"/>
      <point x="237.6400220547148" y="49.0" type="curve"/>
      <point x="185.6400220547148" y="49.0"/>
      <point x="148.87186959171794" y="73.0"/>
      <point x="122.98291070430733" y="119.0" type="curve"/>
    </contour>
    <contour>
      <point x="306.8492676534176" y="640.0" type="line"/>
      <point x="522.8492676534175" y="640.0" type="line"/>
      <point x="531.6656166888408" y="690.0" type="line"/>
      <point x="315.6656166888408" y="690.0" type="line"/>
    </contour>
    <contour>
      <point x="436.6656166888408" y="690.0" type="move" name="top"/>
    </contour>
  </outline>
</glyph>
<glyph name="M" format="1">
  <advance width="830"/>
  <unicode hex="004D"/>
  <outline>
    <contour>
      <point x="110.0" y="0.0" type="line"/>
      <point x="172.0" y="0.0" type="line"/>
      <point x="293.6656166888408" y="690.0" type="line"/>
      <point x="231.66561668884083" y="690.0" type="line"/>
    </contour>
    <contour>
      <point x="265.6656166888408" y="690.0" type="line"/>
      <point x="420.8572216239814" y="175.0" type="line"/>
      <point x="447.8572216239814" y="175.0" type="line"/>
      <point x="461.7870530999501" y="254.0" type="line"/>
      <point x="334.6656166888408" y="690.0" type="line"/>
    </contour>
    <contour>
      <point x="443.8572216239814" y="175.0" type="line"/>
      <point x="470.8572216239814" y="175.0" type="line"/>
      <point x="807.6656166888408" y="690.0" type="line"/>
      <point x="738.6656166888408" y="690.0" type="line"/>
      <point x="457.7870530999501" y="254.0" type="line"/>
    </contour>
    <contour>
      <point x="658.0" y="0.0" type="line"/>
      <point x="720.0" y="0.0" type="line"/>
      <point x="841.6656166888408" y="690.0" type="line"/>
      <point x="779.6656166888408" y="690.0" type="line"/>
    </contour>
  </outline>
</glyph>
<glyph name="O" format="1">
  <advance width="716"/>
  <unicode hex="004F"/>
  <outline>
    <contour>
      <point x="130.8328083444204" y="345.0" type="curve" smooth="yes"/>
      <point x="89.74862183934808" y="112.0"/>
      <point x="198.5893841543323" y="-8.0"/>
      <point x="356.58938415433227" y="-8.0" type="curve" smooth="yes"/>
      <point x="514.5893841543323" y="-8.0"/>
      <point x="665.7486218393481" y="112.0"/>
      <point x="706.8328083444204" y="345.0" type="curve" smooth="yes"/>
      <point x="747.9169948494928" y="578.0"/>
      <point x="639.0762325345086" y="698.0"/>
      <point x="481.07623253450856" y="698.0" type="curve" smooth="yes"/>
      <point x="323.07623253450856" y="698.0"/>
      <point x="171.91699484949277" y="578.0"/>
    </contour>
    <contour>
      <point x="194.8328083444204" y="345.0" type="curve" smooth="yes"/>
      <point x="229.56922354398802" y="542.0"/>
      <point x="346.02559463412604" y="641.0"/>
      <point x="471.02559463412604" y="641.0" type="curve" smooth="yes"/>
      <point x="596.025594634126" y="641.0"/>
      <point x="677.5692235439881" y="542.0"/>
      <point x="642.8328083444204" y="345.0" type="curve" smooth="yes"/>
      <point x="608.0963931448529" y="148.0"/>
      <point x="491.6400220547148" y="49.0"/>
      <point x="366.6400220547148" y="49.0" type="curve" smooth="yes"/>
      <point x="241.6400220547148" y="49.0"/>
      <point x="160.0963931448528" y="148.0"/>
    </contour>
    <contour>
      <point x="479.6656166888408" y="690.0" type="move" name="top"/>
    </contour>
    <contour>
      <point x="358.0" y="0.0" type="move" name="bottom"/>
    </contour>
  </outline>
</glyph>
<glyph name="V" format="1">
  <advance width="582"/>
  <unicode hex="0056"/>
  <outline>
    <contour>
      <point x="141.66561668884083" y="690.0" type="line"/>
      <point x="265.0" y="0.0" type="line"/>
      <point x="309.0" y="0.0" type="line"/>
      <point x="314.9347141318809" y="45.0" type="line"/>
      <point x="206.66561668884083" y="690.0" type="line"/>
    </contour>
    <contour>
      <point x="282.9347141318809" y="45.0" type="line"/>
      <point x="277.0" y="0.0" type="line"/>
      <point x="317.0" y="0.0" type="line"/>
      <point x="683.6656166888408" y="690.0" type="line"/>
      <point x="621.6656166888408" y="690.0" type="line"/>
    </contour>
  </outline>
</glyph>
<glyph name="X" format="1">
  <advance width="615"/>
  <unicode hex="0058"/>
  <outline>
    <contour>
      <point x="45.0" y="0.0" type="line"/>
      <point x="115.0" y="0.0" type="line"/>
      <point x="369.0140179810411" y="312.0" type="line"/>
      <point x="392.5985194794612" y="338.0" type="line"/>
      <point x="681.6656166888408" y="690.0" type="line"/>
      <point x="611.6656166888408" y="690.0" type="line"/>
      <point x="370.12017643771827" y="392.0" type="line"/>
      <point x="346.7120019200066" y="367.0" type="line"/>
    </contour>
    <contour>
      <point x="176.66561668884083" y="690.0" type="line"/>
      <point x="346.30626873025113" y="325.0" type="line"/>
      <point x="497.0" y="0.0" type="line"/>
      <point x="570.0" y="0.0" type="line"/>
      <point x="394.0042526692167" y="380.0" type="line"/>
      <point x="249.66561668884083" y="690.0" type="line"/>
    </contour>
  </outline>
</glyph>
<glyph name="backslash" format="1">
  <advance width="308"/>
  <unicode hex="005C"/>
  <outline>
    <contour>
      <point x="126.95542611009478" y="720.0" type="line"/>
      <point x="244.71019057874605" y="-30.0" type="line"/>
      <point x="302.71019057874605" y="-30.0" type="line"/>
      <point x="184.95542611009478" y="720.0" type="line"/>
    </contour>
  </outline>
</glyph>
<glyph name="asciicircum" format="1">
  <advance width="660"/>
  <unicode hex="005E"/>
  <outline>
    <contour>
      <point x="153.13482440545485" y="290.0" type="line"/>
      <point x="214.13482440545485" y="290.0" type="line"/>
      <point x="458.3178453833361" y="654.0" type="line"/>
      <point x="463.6656166888408" y="690.0" type="line"/>
      <point x="425.6656166888408" y="690.0" type="line"/>
    </contour>
    <contour>
      <point x="431.6656166888408" y="690.0" type="line"/>
      <point x="429.3178453833361" y="654.0" type="line"/>
      <point x="546.1348244054549" y="290.0" type="line"/>
      <point x="609.1348244054549" y="290.0" type="line"/>
      <point x="477.6656166888408" y="690.0" type="line"/>
    </contour>
  </outline>
</glyph>
<glyph name="underscore" format="1">
  <advance width="402"/>
  <unicode hex="005F"/>
  <outline>
    <contour>
      <point x="-8.816349035423249" y="-50.0" type="line"/>
      <point x="393.18365096457677" y="-50.0" type="line"/>
      <point x="402.0" y="0.0" type="line"/>
      <point x="0.0" y="0.0" type="line"/>
    </contour>
  </outline>
</glyph>
<glyph name="a" format="1">
  <advance width="514"/>
  <unicode hex="0061"/>
  <outline>
    <contour>
      <point x="81.33556466572426" y="121.0" type="curve"/>
      <point x="68.64002205471479" y="49.0"/>
      <point x="113.58938415433228" y="-8.0"/>
      <point x="196.5893841543323" y="-8.0" type="curve"/>
      <point x="263.58938415433227" y="-8.0"/>
      <point x="345.28980942125395" y="30.0"/>
      <point x="394.5167743023449" y="88.0" type="curve"/>
      <point x="403.50945031847664" y="139.0" type="line"/>
      <point x="349.75350449526024" y="78.0"/>
      <point x="277.11104111258936" y="46.0"/>
      <point x="216.1110411125894" y="46.0" type="curve"/>
      <point x="158.1110411125894" y="46.0"/>
      <point x="133.28248543738567" y="81.0"/>
      <point x="141.56985353068353" y="128.0" type="curve"/>
      <point x="150.38620256610676" y="178.0"/>
      <point x="194.61316744719772" y="236.0"/>
      <point x="334.7290912156993" y="248.0" type="curve" smooth="yes"/>
      <point x="414.96338008065857" y="255.0" type="line"/>
      <point x="422.3691132704141" y="297.0" type="line"/>
      <point x="335.48747836687176" y="292.0" type="line" smooth="yes"/>
      <point x="168.72420855978712" y="282.0"/>
      <point x="96.49968500665224" y="207.0"/>
    </contour>
    <contour>
      <point x="157.22633489439545" y="472.0" type="curve"/>
      <point x="172.76263982038915" y="424.0" type="line"/>
      <point x="222.34714131880924" y="450.0"/>
      <point x="269.6393920680193" y="463.0"/>
      <point x="317.6393920680193" y="463.0" type="curve"/>
      <point x="394.6393920680193" y="463.0"/>
      <point x="438.58631283968066" y="423.0"/>
      <point x="421.12994174954264" y="324.0" type="curve" smooth="yes"/>
      <point x="384.2776027814735" y="115.0" type="line"/>
      <point x="382.1616790129719" y="103.0" type="line"/>
      <point x="380.0" y="0.0" type="line"/>
      <point x="435.0" y="0.0" type="line"/>
      <point x="435.8767522476301" y="39.0" type="line" smooth="yes"/>
      <point x="436.99023468817563" y="68.0"/>
      <point x="439.6931012830534" y="89.0"/>
      <point x="445.51189164643273" y="122.0" type="curve"/>
      <point x="481.65892269166807" y="327.0" type="line" smooth="yes"/>
      <point x="504.0524492416431" y="454.0"/>
      <point x="437.33737600698487" y="518.0"/>
      <point x="331.33737600698487" y="518.0" type="curve"/>
      <point x="277.33737600698487" y="518.0"/>
      <point x="209.98716337352403" y="499.0"/>
    </contour>
    <contour>
      <point x="338.92676016131713" y="510.0" type="move" name="top"/>
    </contour>
    <contour>
      <point x="249.0" y="0.0" type="move" name="bottom"/>
    </contour>
  </outline>
</glyph>
<glyph name="h" format="1">
  <advance width="575"/>
  <unicode hex="0068"/>
  <outline>
    <contour>
      <point x="95.0" y="0.0" type="line"/>
      <point x="155.0" y="0.0" type="line"/>
      <point x="283.8950228978879" y="731.0" type="line"/>
      <point x="221.4264451679694" y="717.0" type="line"/>
    </contour>
    <contour>
      <point x="204.88832890071512" y="368.0" type="line"/>
      <point x="259.2916207625145" y="427.0"/>
      <point x="328.6393920680193" y="463.0"/>
      <point x="391.6393920680193" y="463.0" type="curve"/>
      <point x="454.6393920680193" y="463.0"/>
      <point x="499.58631283968066" y="423.0"/>
      <point x="481.42463382670877" y="320.0" type="curve" smooth="yes"/>
      <point x="425.0" y="0.0" type="line"/>
      <point x="485.0" y="0.0" type="line"/>
      <point x="542.3062687302511" y="325.0" type="line" smooth="yes"/>
      <point x="564.8761222609346" y="453.0"/>
      <point x="500.33737600698487" y="518.0"/>
      <point x="409.33737600698487" y="518.0" type="curve"/>
      <point x="342.33737600698487" y="518.0"/>
      <point x="263.7553158365209" y="475.0"/>
      <point x="213.52835095542991" y="417.0" type="curve"/>
    </contour>
    <contour>
      <point x="251.95542611009478" y="720.0" type="move" name="top"/>
    </contour>
  </outline>
</glyph>
<glyph name="n" format="1">
  <advance width="575.0"/>
  <unicode hex="006E"/>
  <outline>
    <contour>
      <point x="173.92676016131713" y="510.0" type="line"/>
      <point x="173.050007913687" y="471.0" type="line" smooth="yes"/>
      <point x="171.9365254731415" y="442.0"/>
      <point x="169.23365887826375" y="421.0"/>
      <point x="163.4148685148844" y="388.0" type="curve" smooth="yes"/>
      <point x="95.0" y="0.0" type="line"/>
      <point x="155.0" y="0.0" type="line"/>
      <point x="223.76752247630134" y="390.0" type="line"/>
      <point x="226.76508114834525" y="407.0" type="line"/>
      <point x="228.92676016131713" y="510.0" type="line"/>
    </contour>
    <contour>
      <point x="204.5356749392982" y="366.0" type="line"/>
      <point x="259.2916207625145" y="427.0"/>
      <point x="328.6393920680193" y="463.0"/>
      <point x="391.6393920680193" y="463.0" type="curve"/>
      <point x="454.6393920680193" y="463.0"/>
      <point x="499.58631283968066" y="423.0"/>
      <point x="481.42463382670877" y="320.0" type="curve" smooth="yes"/>
      <point x="425.0" y="0.0" type="line"/>
      <point x="485.0" y="0.0" type="line"/>
      <point x="542.3062687302511" y="325.0" type="line" smooth="yes"/>
      <point x="564.8761222609346" y="453.0"/>
      <point x="500.33737600698487" y="518.0"/>
      <point x="409.33737600698487" y="518.0" type="curve"/>
      <point x="342.33737600698487" y="518.0"/>
      <point x="263.7553158365209" y="475.0"/>
      <point x="213.52835095542991" y="417.0" type="curve"/>
    </contour>
    <contour>
      <point x="389.92676016131713" y="510.0" type="move" name="top"/>
    </contour>
  </outline>
</glyph>
<glyph name="s" format="1">
  <advance width="481"/>
  <unicode hex="0073"/>
  <outline>
    <contour>
      <point x="66.99023468817562" y="68.0" type="line"/>
      <point x="104.70286659487776" y="21.0"/>
      <point x="168.5893841543323" y="-8.0"/>
      <point x="241.5893841543323" y="-8.0" type="curve"/>
      <point x="352.58938415433227" y="-8.0"/>
      <point x="430.34532997754866" y="53.0"/>
      <point x="443.92250749210046" y="130.0" type="curve"/>
      <point x="456.08906916098454" y="199.0"/>
      <point x="418.2580721578247" y="251.0"/>
      <point x="308.7821704440379" y="288.0" type="curve" smooth="yes"/>
      <point x="211.60096080741727" y="321.0"/>
      <point x="192.71444324796275" y="350.0"/>
      <point x="199.59119549559287" y="389.0" type="curve"/>
      <point x="206.46794774322302" y="428.0"/>
      <point x="255.16837301014468" y="466.0"/>
      <point x="323.1683730101447" y="466.0" type="curve"/>
      <point x="371.1683730101447" y="466.0"/>
      <point x="412.9944873573923" y="448.0"/>
      <point x="436.9993700133045" y="414.0" type="curve"/>
      <point x="484.69979528022617" y="452.0" type="line"/>
      <point x="447.45818243139865" y="496.0"/>
      <point x="398.33737600698487" y="518.0"/>
      <point x="332.33737600698487" y="518.0" type="curve"/>
      <point x="234.33737600698487" y="518.0"/>
      <point x="152.58143018376848" y="457.0"/>
      <point x="139.70956059205054" y="384.0" type="curve"/>
      <point x="129.65892269166804" y="327.0"/>
      <point x="158.784611771994" y="271.0"/>
      <point x="271.4368404664893" y="235.0" type="curve" smooth="yes"/>
      <point x="365.14703104523534" y="205.0"/>
      <point x="390.50456766256445" y="173.0"/>
      <point x="382.0408725885581" y="125.0" type="curve"/>
      <point x="374.98779336021954" y="85.0"/>
      <point x="331.28736809329786" y="47.0"/>
      <point x="255.28736809329786" y="47.0" type="curve"/>
      <point x="199.28736809329786" y="47.0"/>
      <point x="143.16656166888407" y="69.0"/>
      <point x="115.69065995509729" y="106.0" type="curve"/>
    </contour>
    <contour>
      <point x="243.0" y="0.0" type="move" name="bottom"/>
    </contour>
    <contour>
      <point x="330.92676016131713" y="510.0" type="move" name="top"/>
    </contour>
  </outline>
</glyph>
<glyph name="bar" format="1">
  <advance width="276"/>
  <unicode hex="007C"/>
  <outline>
    <contour>
      <point x="72.08969914768002" y="-215.0" type="line"/>
      <point x="128.08969914768002" y="-215.0" type="line"/>
      <point x="292.9554261100948" y="720.0" type="line"/>
      <point x="236.95542611009478" y="720.0" type="line"/>
    </contour>
  </outline>
</glyph>
<glyph name="braceright" format="1">
  <advance width="358"/>
  <unicode hex="007D"/>
  <outline>
    <contour>
      <point x="10.616238761849331" y="-195.0" type="curve"/>
      <point x="15.50519764925994" y="-241.0" type="line"/>
      <point x="131.91337216697156" y="-216.0"/>
      <point x="195.61135610593715" y="-161.0"/>
      <point x="209.71751456261433" y="-81.0" type="curve" smooth="yes"/>
      <point x="226.29225074921004" y="13.0"/>
      <point x="151.93227280392483" y="62.0"/>
      <point x="165.1567963570597" y="137.0" type="curve" smooth="yes"/>
      <point x="173.2678374696491" y="183.0"/>
      <point x="222.02622462082155" y="227.0"/>
      <point x="322.2580721578247" y="251.0" type="curve"/>
      <point x="328.2531895019125" y="285.0" type="line"/>
      <point x="236.48503703891566" y="309.0"/>
      <point x="203.24342419008815" y="353.0"/>
      <point x="211.3544653026775" y="399.0" type="curve" smooth="yes"/>
      <point x="224.57898885581238" y="474.0"/>
      <point x="316.04268392981874" y="522.0"/>
      <point x="332.61742011641445" y="616.0" type="curve" smooth="yes"/>
      <point x="346.72357857309163" y="696.0"/>
      <point x="303.2452355313487" y="750.0"/>
      <point x="194.8297370297688" y="776.0" type="curve"/>
      <point x="173.71869591717945" y="730.0" type="line"/>
      <point x="268.60521347663393" y="701.0"/>
      <point x="284.7284612290038" y="662.0"/>
      <point x="276.7937470971229" y="617.0" type="curve" smooth="yes"/>
      <point x="263.74555052469645" y="543.0"/>
      <point x="175.87123960502242" y="487.0"/>
      <point x="160.70711926409444" y="401.0" type="curve"/>
      <point x="150.65648136371195" y="344.0"/>
      <point x="174.01645930899718" y="295.0"/>
      <point x="253.2556308298686" y="268.0" type="curve"/>
      <point x="164.3184753700316" y="240.0"/>
      <point x="123.85478029602527" y="192.0"/>
      <point x="113.80414239564277" y="135.0" type="curve"/>
      <point x="98.64002205471479" y="49.0"/>
      <point x="166.5893841543323" y="-8.0"/>
      <point x="153.54118758190586" y="-82.0" type="curve" smooth="yes"/>
      <point x="145.60647345002494" y="-127.0"/>
      <point x="115.72972120239481" y="-166.0"/>
    </contour>
  </outline>
</glyph>
